<svg version="1.1" xmlns="http://www.w3.org/2000/svg" xmlns:xlink="http://www.w3.org/1999/xlink" width="211.00918" height="241.76601" viewBox="0,0,211.00918,241.76601"><g transform="translate(-79.39879,-35.65018)"><g stroke-miterlimit="10"><path d="M241.65984,201.58624l-76.41559,-7.54295l5.33592,-5.30489l66.31984,-4.8029z" fill="#3749ef" stroke="none" stroke-width="0" stroke-linecap="butt" stroke-linejoin="miter"/><g stroke="none" stroke-width="0" stroke-linecap="butt" stroke-linejoin="miter"><g><path d="M265.53568,206.06371l-23.96499,-6.87261l23.21491,-38.34827l25.62237,-13.80738z" fill="#a90f21"/><path d="M274.22365,184.94842c0,0 -8.44744,1.72785 -11.23791,0.80171c-3.65926,-1.21448 -8.82638,-7.46092 -8.82638,-7.46092l8.04086,-13.16526c0,0 2.85566,6.71156 7.02311,8.47517c4.16743,1.76362 10.5932,-1.02018 10.5932,-1.02018z" fill="#99c7e2"/></g><path d="M248.9396,205.71988l-7.90082,-2.97875l-8.27708,0.22602l2.6967,-23.55151l7.3756,1.12516l9.65568,-3.63832z" fill="#99c7e2"/></g><path d="M185.77714,179.98458c11.41804,13.86303 19.01576,26.18511 16.96995,27.52214c-2.04579,1.33704 -12.9604,-8.81729 -24.37842,-22.68033c-11.41804,-13.86303 -19.01575,-26.18512 -16.96994,-27.52214c2.04579,-1.33704 12.9604,8.81729 24.37842,22.68033z" fill="#c9902d" stroke="none" stroke-width="0" stroke-linecap="butt" stroke-linejoin="miter"/><g fill="#d4efff" stroke="none" stroke-width="0" stroke-linecap="butt" stroke-linejoin="miter"><path d="M196.02136,219.46505l-0.4009,-6.54852l-7.26825,-5.78601l16.03423,-12.27022l4.18576,8.11891l6.49073,2.44797z"/><path d="M219.04239,207.40583c7.99935,2.55295 12.11736,10.50702 9.19784,17.76592c-2.91952,7.2589 -11.77101,11.07382 -19.77036,8.52087c-7.99935,-2.55295 -12.11736,-10.50702 -9.19784,-17.76592c2.91952,-7.2589 11.77101,-11.07382 19.77036,-8.52087z"/></g><path d="M202.49003,247.60218l-2.79818,-7.46828l10.50488,-2.69522l2.90303,8.69735z" fill="#99c7e2" stroke="none" stroke-width="0" stroke-linecap="butt" stroke-linejoin="miter"/><g stroke="none" stroke-width="0"><path d="M181.03188,178.24812c0,12.67391 -3.58278,13.38311 -11.60764,17.49195c-8.02486,4.10885 -18.14969,4.50134 -25.93341,1.72966c-9.18985,-3.27241 -13.87873,-10.37087 -13.87873,-10.37087c0,0 14.07345,-0.48191 14.07345,-7.56693c0,-7.26129 -17.69611,-5.74364 -17.69611,-5.74364c0,0 7.44782,-18.47832 29.6402,-18.48834c22.19238,-0.01003 25.40225,10.27425 25.40225,22.94818z" fill="#6676ff" stroke-linecap="round" stroke-linejoin="round"/><path d="M180.24971,176.12709c0,10.19232 -6.21057,18.45483 -13.87168,18.45483c-7.66112,0 -13.87168,-8.26251 -13.87168,-18.45483c0,-10.19232 6.21057,-18.45483 13.87168,-18.45483c7.66112,0 13.87168,8.26251 13.87168,18.45483z" fill="#f0ad3c" stroke-linecap="butt" stroke-linejoin="miter"/></g><path d="M183.50726,52.50507l26.2428,-9.46317l-10.64565,24.88051z" fill="#3749ef" stroke="none" stroke-width="0" stroke-linecap="butt" stroke-linejoin="miter"/><path d="M196.72594,58.2518c7.96201,4.19378 11.4645,25.76231 11.64729,39.4463c0.19247,14.40691 -3.61625,34.53543 -9.91269,39.26946c-14.57298,10.95679 -34.48699,15.79086 -39.41945,15.79086c-0.27937,0 -34.62413,-17.92626 -34.62413,-18.23274c0,-10.69733 -10.57153,-48.93717 0.83432,-68.16661c11.40584,-19.22944 38.67344,-8.61281 45.31819,3.27846c7.12421,12.74931 4.6829,44.65337 4.6829,44.65337c0,0 -0.05849,-29.77034 5.20878,-43.93526c3.77554,-10.15331 9.4406,-15.69832 16.26479,-12.10384z" fill="#ef3b3b" stroke="none" stroke-width="0" stroke-linecap="butt" stroke-linejoin="miter"/><path d="M199.16667,100c0,15.46397 -4.77563,28 -10.66667,28c-5.89104,0 -10.66667,-12.53603 -10.66667,-28c0,-15.46397 4.77563,-28 10.66667,-28c5.89104,0 10.66667,12.53603 10.66667,28z" fill="#000000" stroke="none" stroke-width="0" stroke-linecap="butt" stroke-linejoin="miter"/><path d="M79.5479,132.53196c0,0 -2.21792,-36.03414 10.45411,-50.64859c12.67203,-14.61444 28.00263,-15.78804 28.00263,-15.78804l-18.02927,-1.85699c0,0 18.69942,-18.884 48.49843,-18.0246c57.54052,1.65948 58.54459,20.62933 62.33357,48.32423c0.41791,3.05463 -2.26524,18.6449 -4.61845,28.34081c-1.3095,5.39548 -2.88492,7.94107 -2.88492,7.94107c0,0 -0.51554,1.31463 -0.7061,1.8767c-2.16883,6.39785 -3.01113,3.00661 -4.26503,6.42627c0.48471,-2.5005 4.97408,-7.51224 6.54234,-13.0984c2.89043,-10.29575 3.3345,-22.91273 3.267,-27.96614c-0.1828,-13.68399 -3.35196,-33.58586 -11.31396,-37.77963c-6.82419,-3.59445 -9.82258,-0.3828 -13.59812,9.77052c-5.26725,14.16492 -7.91997,48.20375 -7.91997,48.20375c0,0 -1.51418,-34.50589 -8.63839,-47.2552c-6.64475,-11.89128 -30.57901,-18.17456 -41.98486,1.05488c-11.40584,19.22944 -0.50099,52.13595 -0.50099,62.83328c0,0.30649 34.34476,18.23274 34.62413,18.23274c4.93245,0 27.15699,-7.40679 41.72996,-18.36358c0.01923,-0.01445 0.03841,-0.02903 0.05754,-0.04372c-1.73776,3.20081 -3.57604,6.13147 -5.41977,8.64198c-3.37156,4.59086 -14.30873,8.46185 -27.8138,10.12714c-17.413,2.14716 -20.92977,-1.99448 -32.64488,2.51745c-17.03202,6.55966 -23.92906,11.32934 -23.92906,11.32934c0,0 -14.16451,-10.85249 -18.3222,-23.2114c-4.15769,-12.35892 1.91314,-22.07726 1.91314,-22.07726z" fill="#6676ff" stroke="none" stroke-width="0" stroke-linecap="butt" stroke-linejoin="miter"/><path d="M109.4787,93.55791l-5.4875,-22.38268l38.54594,-11.75393c0,0 -18.018,5.11125 -21.23574,24.55571c-1.25109,12.80535 5.21736,53.05991 5.21736,53.05991l-33.70014,-33.34293z" fill="#000000" stroke="none" stroke-width="0" stroke-linecap="butt" stroke-linejoin="miter"/><path d="M121.28302,61.76018l-5.01886,-26.10999l23.81543,13.87322z" fill="#6676ff" stroke="none" stroke-width="0" stroke-linecap="butt" stroke-linejoin="miter"/><path d="M122.03494,55.51612l-4.77806,-17.74593l16.40957,11.11076z" fill="#ffc476" stroke="none" stroke-width="0" stroke-linecap="butt" stroke-linejoin="miter"/><path d="M220.16272,98.03399l-18.39293,36.17292c0,0 7.14947,-26.53195 5.89839,-39.3373c-2.55107,-26.11113 -10.15003,-33.88232 -10.15003,-33.88232l12.62729,4.78522l5.19866,24.9554z" fill="#000000" stroke="none" stroke-width="0" stroke-linecap="butt" stroke-linejoin="miter"/><path d="M203.45343,131.95786c0,7.49382 -13.77976,24.79812 -41.14489,24.79812c-27.36514,0 -42.1954,-18.55199 -42.1954,-26.04582c0,-5.53285 14.15702,7.59665 35.69539,9.13324c7.63374,0.54461 12.64555,-9.91305 19.80646,-9.91305c4.90089,0 6.90559,10.21828 10.34383,10.13772c15.75982,-0.36922 17.49465,-14.26196 17.49465,-8.1102z" fill="#f0ad3c" stroke="none" stroke-width="0" stroke-linecap="butt" stroke-linejoin="miter"/><path d="M179.86732,125.28376c1.13934,-0.01583 0.69732,2.00824 -0.98725,4.52088c-1.68459,2.51264 -3.97384,4.56236 -5.11319,4.57819c-1.13934,0.01582 -0.69732,-2.00824 0.98725,-4.52088c1.68459,-2.51264 3.97384,-4.56238 5.11319,-4.5782z" fill="#000000" stroke="none" stroke-width="0" stroke-linecap="butt" stroke-linejoin="miter"/><path d="M154.45478,153.55467c-2.36303,-0.30789 -9.07431,-0.95117 -12.09488,-1.65309" fill="none" stroke="#000000" stroke-width="1.5" stroke-linecap="round" stroke-linejoin="miter"/><path d="M137.9482,191.98496c-9.38929,15.02264 -18.79799,26.30958 -21.01491,25.21011c-2.21691,-1.09947 3.59743,-14.16901 12.98673,-29.19165c9.38929,-15.02264 18.79799,-26.30958 21.01491,-25.21011c2.21691,1.09947 -3.59743,14.16901 -12.98673,29.19165z" fill="#f0ad3c" stroke="none" stroke-width="0" stroke-linecap="butt" stroke-linejoin="miter"/><g fill="#d4efff" stroke="none" stroke-width="0" stroke-linecap="butt" stroke-linejoin="miter"><path d="M101.92724,217.0528l6.5157,-3.0534l2.87594,-8.29659l19.20317,7.87095l-6.54113,6.77261l0.20654,6.27602z"/><path d="M123.4409,230.12706c0.72805,7.54139 -5.67308,14.19047 -14.29733,14.85113c-8.62425,0.66066 -16.20577,-4.91728 -16.93383,-12.45867c-0.72805,-7.54139 5.67308,-14.19047 14.29733,-14.85113c8.62425,-0.66066 16.20577,4.91728 16.93383,12.45867z"/></g><path d="M192.56132,257.39367l-43.18369,-64.15779l7.27796,1.03163l48.38686,48.95828z" fill="#6676ff" stroke="none" stroke-width="0" stroke-linecap="butt" stroke-linejoin="miter"/><g stroke="none" stroke-width="0" stroke-linecap="butt" stroke-linejoin="miter"><g><path d="M202.9177,277.41619l-8.28662,-21.86368l47.06732,-5.9732l27.21078,10.61249z" fill="#ff1732"/><path d="M226.39947,271.10007c0,0 -6.52118,-5.20278 -7.37686,-7.82451c-1.12209,-3.438 1.22428,-11.02663 1.22428,-11.02663l16.20079,-1.99816c0,0 -4.1241,6.16037 -3.17621,10.30538c0.9479,4.14501 7.18307,7.21608 7.18307,7.21608z" fill="#d4efff"/></g><path d="M193.34888,264.93923l-2.11349,-7.63821l-5.11715,-5.98289l22.03294,-12.21526l3.40911,6.1316l8.89677,4.94341z" fill="#d4efff"/></g><path d="M162.83333,102c0,16.01626 -6.86497,29 -15.33333,29c-8.46837,0 -15.33333,-12.98374 -15.33333,-29c0,-16.01626 6.86497,-29 15.33333,-29c8.46837,0 15.33333,12.98374 15.33333,29z" fill="#000000" stroke="none" stroke-width="0" stroke-linecap="butt" stroke-linejoin="miter"/></g></g></svg>