<svg version="1.1" xmlns="http://www.w3.org/2000/svg" xmlns:xlink="http://www.w3.org/1999/xlink" width="213.35284" height="233.8567" viewBox="0,0,213.35284,233.8567"><g transform="translate(-77.13848,-43.0333)"><g stroke-miterlimit="10"><path d="M236.97634,202.87223l-77.93937,-12.5059l5.81511,-4.83764l68.36781,-0.26073z" fill="#3749ef" stroke="none" stroke-width="0" stroke-linecap="butt" stroke-linejoin="miter"/><g stroke="none" stroke-width="0" stroke-linecap="butt" stroke-linejoin="miter"><g><path d="M261.19271,208.85647l-24.15475,-8.33578l26.27574,-35.9994l27.17762,-11.80516z" fill="#a90f21"/><path d="M271.45855,188.76022c0,0 -8.77964,1.1262 -11.58416,0.03229c-3.67768,-1.43447 -8.58114,-7.89778 -8.58114,-7.89778l9.09353,-12.35411c0,0 2.50158,6.76395 6.66569,8.77023c4.16409,2.00629 10.9365,-0.28943 10.9365,-0.28943z" fill="#99c7e2"/></g><path d="M244.18295,207.40799l-7.91781,-3.44638l-8.50881,-0.33314l4.27303,-22.8834l7.49728,1.59597l10.14173,-2.91618z" fill="#99c7e2"/></g><path d="M211.16275,198.86085c-1.83275,1.67014 -11.14189,-11.45452 -25.14612,-22.71813c-14.00423,-11.2636 -27.40048,-16.40083 -25.56769,-18.07096c1.83275,-1.67014 20.87904,4.53309 31.09955,12.75344c10.22051,8.22035 21.44704,26.3655 19.61426,28.03564z" fill="#c9902d" stroke="none" stroke-width="0" stroke-linecap="butt" stroke-linejoin="miter"/><g fill="#d4efff" stroke="none" stroke-width="0" stroke-linecap="butt" stroke-linejoin="miter"><path d="M206.47622,211.65181l-1.56481,-6.24683l-8.37659,-4.23679l14.04747,-14.81889l5.67144,7.06055l6.99914,1.15888z"/><path d="M227.62863,195.74043c8.5438,0.98033 14.11754,7.89435 12.4493,15.44288c-1.66826,7.54855 -9.94675,12.87314 -18.49055,11.89281c-8.5438,-0.98032 -14.11753,-7.89435 -12.44929,-15.44288c1.66826,-7.54855 9.94675,-12.87314 18.49055,-11.89281z"/></g><path d="M202.9901,248.15714l-2.87775,-7.32927l10.80358,-2.64505l2.98558,8.53547z" fill="#99c7e2" stroke="none" stroke-width="0" stroke-linecap="butt" stroke-linejoin="miter"/><g stroke="none" stroke-width="0"><path d="M178.07978,172.18267c1.86056,12.29807 -1.67853,13.53741 -9.23553,18.75894c-7.557,5.22155 -17.79495,7.16 -26.11682,5.66797c-9.82522,-1.7616 -15.63524,-7.92822 -15.63524,-7.92822c0,0 14.24004,-2.63268 13.19994,-9.5076c-1.06597,-7.04596 -18.83771,-2.85094 -18.83771,-2.85094c0,0 4.86076,-19.07612 27.4259,-22.49992c22.56515,-3.42381 27.33891,6.06168 29.19947,18.35977z" fill="#6676ff" stroke-linecap="round" stroke-linejoin="round"/><path d="M176.97305,170.24487c1.49626,9.89007 -3.60609,18.86299 -11.3964,20.04157c-7.79031,1.17859 -15.31856,-5.88347 -16.81482,-15.77353c-1.49626,-9.89007 3.60609,-18.86299 11.3964,-20.04157c7.79031,-1.17859 15.31856,5.88347 16.81482,15.77353z" fill="#f0ad3c" stroke-linecap="butt" stroke-linejoin="miter"/></g><path d="M187.78961,62.95526l27.41306,-7.94856l-12.13588,23.84946z" fill="#3749ef" stroke="none" stroke-width="0" stroke-linecap="butt" stroke-linejoin="miter"/><path d="M201.09037,69.25674c7.9761,4.51342 10.5329,25.83202 10.06025,39.25431c-0.49759,14.13138 -5.3813,33.66872 -12.07742,37.99057c-15.49802,10.00281 -36.1868,13.73401 -41.25337,13.48455c-0.28697,-0.01413 -34.70043,-19.32243 -34.68564,-19.62284c0.51627,-10.48552 -8.4972,-48.50285 4.14682,-66.77469c12.64401,-18.27184 40.14066,-6.48636 46.39219,5.50551c6.70262,12.85718 2.6552,44.00605 2.6552,44.00605c0,0 1.37668,-29.18383 7.47079,-42.80189c4.36821,-9.76132 10.45492,-14.91003 17.29119,-11.04159z" fill="#ef3b3b" stroke="none" stroke-width="0" stroke-linecap="butt" stroke-linejoin="miter"/><path d="M199.9861,110.22314c-0.63756,12.94908 -5.3451,23.24004 -10.51457,22.98552c-5.16947,-0.25453 -8.84331,-10.95816 -8.20574,-23.90724c0.63756,-12.94908 5.3451,-23.24004 10.51457,-22.98552c5.16947,0.25453 8.84331,10.95816 8.20574,23.90724z" fill="#000000" stroke="none" stroke-width="0" stroke-linecap="butt" stroke-linejoin="miter"/><path d="M77.14134,136.13984c0,0 -0.53917,-35.43282 13.18273,-49.11701c13.7219,-13.68418 29.52599,-14.0592 29.52599,-14.0592l-18.42987,-2.73205c0,0 20.11923,-17.56437 50.68702,-15.2149c59.02499,4.53673 59.14085,23.18175 61.69626,50.51991c0.28185,3.01528 -3.22666,18.16116 -6.11179,27.54607c-1.6055,5.22242 -3.34661,7.63793 -3.34661,7.63793c0,0 -0.593,1.26253 -0.81587,1.80383c-2.53657,6.16148 -3.23811,2.79479 -4.69114,6.08332c0.61857,-2.42647 5.47188,-7.11193 7.35238,-12.50817c3.46591,-9.94571 4.53097,-22.29041 4.70552,-27.24717c0.47264,-13.42229 0.1778,-31.75704 -7.7983,-36.27045c-6.83627,-3.86841 -21.4394,23.556 -21.4394,23.556l-5.4617,30.84874l-1.926,-28.08975c0,0 -28.83721,-32.92271 -42.10768,-27.06249c-2.85817,1.26216 -3.49569,4.06847 -5.73635,7.30644c-12.64401,18.27184 -3.03076,51.0783 -3.54703,61.56382c-0.01479,0.30042 34.39867,19.60871 34.68564,19.62284c5.06657,0.24946 28.25286,-5.88667 43.75087,-15.88948c0.02045,-0.01319 0.04086,-0.02651 0.06121,-0.03994c-1.93949,3.04955 -3.96919,5.82921 -5.98421,8.19676c-3.6848,4.32944 -15.10617,7.57064 -29.05882,8.51993c-17.99009,1.22398 -21.4026,-3.01351 -33.65401,0.81659c-17.81171,5.56838 -25.12647,9.8948 -25.12647,9.8948c0,0 -14.02589,-11.35398 -17.70018,-23.67845c-3.67428,-12.32448 3.03064,-21.54336 3.03064,-21.54336z" fill="#6676ff" stroke="none" stroke-width="0" stroke-linecap="butt" stroke-linejoin="miter"/><path d="M109.76691,99.45124l-4.55649,-22.21702l37.16128,-6.57174c0,0 -15.75459,1.09878 -19.99824,19.9955c-1.90311,12.48852 2.79848,52.27317 2.79848,52.27317l-33.00729,-34.38711z" fill="#000000" stroke="none" stroke-width="0" stroke-linecap="butt" stroke-linejoin="miter"/><path d="M123.4268,68.88013l-3.89522,-25.84683l23.79344,14.80299z" fill="#6676ff" stroke="none" stroke-width="0" stroke-linecap="butt" stroke-linejoin="miter"/><path d="M124.50051,62.79773l-4.05153,-17.6362l16.31953,11.72068z" fill="#ffc476" stroke="none" stroke-width="0" stroke-linecap="butt" stroke-linejoin="miter"/><path d="M223.24446,109.43654l-20.6388,34.52646c0,0 8.62434,-25.64502 7.95724,-38.26009c-1.36028,-25.72314 -8.79081,-33.72477 -8.79081,-33.72477l12.73969,5.3291l4.13563,24.72419z" fill="#000000" stroke="none" stroke-width="0" stroke-linecap="butt" stroke-linejoin="miter"/><path d="M204.44363,141.84363c-0.36166,7.34544 -15.35123,23.61019 -43.46043,22.2262c-28.10921,-1.38399 -42.44737,-20.31869 -42.08571,-27.66414c0.26702,-5.4233 14.17533,8.16222 36.22518,10.75769c7.81502,0.9199 13.46781,-9.07722 20.82342,-8.71506c5.03415,0.24786 6.60021,10.3652 10.13582,10.46013c16.20616,0.43514 18.65864,-13.09477 18.36175,-7.06482z" fill="#f0ad3c" stroke="none" stroke-width="0" stroke-linecap="butt" stroke-linejoin="miter"/><path d="M180.5383,134.1088c1.17108,0.04211 0.61936,2.00374 -1.23228,4.38143c-1.85166,2.37769 -4.30208,4.27105 -5.47317,4.22894c-1.17108,-0.04212 -0.61936,-2.00374 1.23228,-4.38143c1.85166,-2.37769 4.30208,-4.27107 5.47317,-4.22895z" fill="#000000" stroke="none" stroke-width="0" stroke-linecap="butt" stroke-linejoin="miter"/><path d="M135.65017,154.73782c0.99725,0.22114 4.20632,-1.54328 8.18474,-0.41002c1.66411,0.47402 6.14368,4.59559 6.14368,4.59559c0,0 5.45829,-2.1615 7.76819,-1.15823c4.64444,2.01723 7.12481,5.15172 8.00886,5.26164" fill="none" stroke="#000000" stroke-width="1.5" stroke-linecap="round" stroke-linejoin="miter"/><path d="M124.44638,185.57511c-9.65627,14.74302 -15.33251,28.48655 -17.61246,27.40754c-2.27995,-1.07901 -0.63362,-17.57194 9.02266,-32.31496c9.65627,-14.74302 26.99917,-17.81989 29.27913,-16.74088c2.27995,1.07901 -11.03305,6.90528 -20.68933,21.6483z" fill="#f0ad3c" stroke="none" stroke-width="0" stroke-linecap="butt" stroke-linejoin="miter"/><g fill="#d4efff" stroke="none" stroke-width="0" stroke-linecap="butt" stroke-linejoin="miter"><path d="M91.40117,212.84304l6.70097,-2.99657l2.95772,-8.14217l19.74921,7.72445l-6.72713,6.64655l0.21241,6.1592z"/><path d="M113.52657,225.67395c0.74875,7.40102 -5.83439,13.92634 -14.70387,14.57471c-8.86948,0.64836 -16.66658,-4.82575 -17.41534,-12.22678c-0.74875,-7.40102 5.83439,-13.92634 14.70387,-14.57471c8.86948,-0.64836 16.66658,4.82575 17.41534,12.22678z"/></g><path d="M183.67584,256.26354l-37.81472,-67.13312l7.34411,1.76437l44.64728,52.83432z" fill="#6676ff" stroke="none" stroke-width="0" stroke-linecap="butt" stroke-linejoin="miter"/><g stroke="none" stroke-width="0" stroke-linecap="butt" stroke-linejoin="miter"><g><path d="M192.28439,276.88999l-6.30808,-22.20874l48.75035,-0.93547l26.78744,13.19231z" fill="#ff1732"/><path d="M216.937,273.16605c0,0 -6.15572,-5.75816 -6.77095,-8.40691c-0.80678,-3.47344 2.34727,-10.63852 2.34727,-10.63852l16.77436,-0.26552c0,0 -4.83117,5.58566 -4.2728,9.73127c0.55837,4.14561 6.63307,7.79271 6.63307,7.79271z" fill="#d4efff"/></g><path d="M183.73257,263.71263l-1.40418,-7.67746l-4.64173,-6.37376l23.75585,-9.63429l2.87937,6.34126l8.61207,5.75206z" fill="#d4efff"/></g><path d="M161.4314,110.63975c-0.65518,13.3068 -7.16336,23.79981 -14.53644,23.43678c-7.37308,-0.36302 -12.81901,-11.4446 -12.16383,-24.75141c0.65518,-13.3068 7.16336,-23.79981 14.53644,-23.43678c7.37308,0.36302 12.81901,11.4446 12.16383,24.75141z" fill="#000000" stroke="none" stroke-width="0" stroke-linecap="butt" stroke-linejoin="miter"/></g></g></svg>