<svg version="1.1" xmlns="http://www.w3.org/2000/svg" xmlns:xlink="http://www.w3.org/1999/xlink" width="216.26949" height="234.38292" viewBox="0,0,216.26949,234.38292"><g transform="translate(-77.13848,-43.03328)"><g stroke-miterlimit="10"><path d="M243.2737,202.99769l-78.58845,-7.40255l5.48765,-5.20615l68.20563,-4.7135z" fill="#3749ef" stroke="none" stroke-width="0" stroke-linecap="butt" stroke-linejoin="miter"/><g stroke="none" stroke-width="0" stroke-linecap="butt" stroke-linejoin="miter"><g><path d="M267.82844,207.39182l-24.64643,-6.74469l23.87502,-37.63449l26.35094,-13.55038z" fill="#a90f21"/><path d="M276.76345,186.66955c0,0 -8.68764,1.69569 -11.55746,0.78679c-3.76331,-1.19187 -9.07736,-7.32205 -9.07736,-7.32205l8.2695,-12.92021c0,0 2.93686,6.58664 7.22281,8.31742c4.28593,1.73079 10.89442,-1.00119 10.89442,-1.00119z" fill="#99c7e2"/></g><path d="M250.76045,207.05439l-8.12548,-2.92331l-8.51244,0.22181l2.77338,-23.11314l7.58532,1.10422l9.93024,-3.5706z" fill="#99c7e2"/></g><path d="M209.48579,203.38753c-2.08263,1.34574 -11.13276,-11.10481 -23.09229,-24.51961c-11.95954,-13.41479 -22.29969,-22.71391 -20.21703,-24.05963c2.08263,-1.34574 18.69735,8.72928 27.42561,18.51961c8.72826,9.79032 17.96636,28.7139 15.88371,30.05963z" fill="#c9902d" stroke="none" stroke-width="0" stroke-linecap="butt" stroke-linejoin="miter"/><g fill="#d4efff" stroke="none" stroke-width="0" stroke-linecap="butt" stroke-linejoin="miter"><path d="M202.75806,215.23278l-0.51539,-6.41918l-7.56509,-5.55762l16.29478,-12.30492l4.4321,7.89767l6.71298,2.29498z"/><path d="M226.24069,203.01957c8.26596,2.37308 12.6258,10.11013 9.73799,17.28118c-2.88783,7.17106 -11.92975,11.06059 -20.1957,8.68751c-8.26596,-2.37307 -12.62579,-10.11013 -9.73798,-17.28118c2.88783,-7.17106 11.92975,-11.06059 20.1957,-8.68751z"/></g><path d="M202.9901,248.15713l-2.87775,-7.32927l10.80358,-2.64505l2.98558,8.53547z" fill="#99c7e2" stroke="none" stroke-width="0" stroke-linecap="butt" stroke-linejoin="miter"/><g stroke="none" stroke-width="0"><path d="M180.25513,177.09396c0,12.43801 -3.68466,13.13401 -11.9377,17.16637c-8.25305,4.03237 -18.66577,4.41756 -26.67082,1.69747c-9.45116,-3.2115 -14.27337,-10.17784 -14.27337,-10.17784c0,0 14.47363,-0.47294 14.47363,-7.42609c0,-7.12614 -18.1993,-5.63673 -18.1993,-5.63673c0,0 7.6596,-18.13438 30.48301,-18.14422c22.82342,-0.00984 26.12456,10.08301 26.12456,22.52104z" fill="#6676ff" stroke-linecap="round" stroke-linejoin="round"/><path d="M179.45072,175.01241c0,10.00261 -6.38717,18.11133 -14.26612,18.11133c-7.87896,0 -14.26612,-8.10872 -14.26612,-18.11133c0,-10.00261 6.38717,-18.11133 14.26612,-18.11133c7.87896,0 14.26612,8.10872 14.26612,18.11133z" fill="#f0ad3c" stroke-linecap="butt" stroke-linejoin="miter"/></g><path d="M187.78961,62.95525l27.41306,-7.94856l-12.13588,23.84946z" fill="#3749ef" stroke="none" stroke-width="0" stroke-linecap="butt" stroke-linejoin="miter"/><path d="M201.09037,69.25673c7.9761,4.51342 10.5329,25.83202 10.06025,39.25431c-0.49759,14.13138 -5.3813,33.66872 -12.07742,37.99057c-15.49802,10.00281 -36.1868,13.73401 -41.25337,13.48455c-0.28697,-0.01413 -34.70043,-19.32243 -34.68564,-19.62284c0.51627,-10.48552 -8.4972,-48.50285 4.14682,-66.77469c12.64401,-18.27184 40.14066,-6.48636 46.39219,5.50551c6.70262,12.85718 2.6552,44.00605 2.6552,44.00605c0,0 1.37668,-29.18383 7.47079,-42.80189c4.36821,-9.76132 10.45492,-14.91003 17.29119,-11.04159z" fill="#ef3b3b" stroke="none" stroke-width="0" stroke-linecap="butt" stroke-linejoin="miter"/><path d="M199.9861,110.22313c-0.63756,12.94908 -5.3451,23.24004 -10.51457,22.98552c-5.16947,-0.25453 -8.84331,-10.95816 -8.20574,-23.90724c0.63756,-12.94908 5.3451,-23.24004 10.51457,-22.98552c5.16947,0.25453 8.84331,10.95816 8.20574,23.90724z" fill="#000000" stroke="none" stroke-width="0" stroke-linecap="butt" stroke-linejoin="miter"/><path d="M77.14134,136.13983c0,0 -0.53917,-35.43282 13.18273,-49.11701c13.7219,-13.68418 29.52599,-14.0592 29.52599,-14.0592l-18.42987,-2.73205c0,0 20.11923,-17.56437 50.68702,-15.2149c59.02499,4.53673 59.14085,23.18175 61.69626,50.51991c0.28185,3.01528 -3.22666,18.16116 -6.11179,27.54607c-1.6055,5.22242 -3.34661,7.63793 -3.34661,7.63793c0,0 -0.593,1.26253 -0.81587,1.80383c-2.53657,6.16148 -3.23811,2.79479 -4.69114,6.08332c0.61857,-2.42647 5.47188,-7.11193 7.35238,-12.50817c3.46591,-9.94571 4.53097,-22.29041 4.70552,-27.24717c0.47264,-13.42229 -1.8222,-33.09037 -9.7983,-37.60378c-6.83627,-3.86841 -10.40452,7.128 -14.77273,16.88933c-6.09409,13.61806 -10.12837,38.84874 -10.12837,38.84874c0,0 1.10995,-24.56591 -5.59267,-37.42308c-5.14369,-9.8668 -23.17054,-22.92271 -36.44101,-17.06249c-2.85817,1.26216 -5.49569,3.4018 -7.73635,6.63977c-12.64401,18.27184 -3.03076,51.0783 -3.54703,61.56382c-0.01479,0.30042 34.39867,19.60871 34.68564,19.62284c5.06657,0.24946 28.25286,-5.88667 43.75087,-15.88948c0.02045,-0.01319 0.04086,-0.02651 0.06121,-0.03994c-1.93949,3.04955 -3.96919,5.82921 -5.98421,8.19676c-3.6848,4.32944 -15.10617,7.57064 -29.05882,8.51993c-17.99009,1.22398 -21.4026,-3.01351 -33.65401,0.81659c-17.81171,5.56838 -25.12647,9.8948 -25.12647,9.8948c0,0 -14.02589,-11.35398 -17.70018,-23.67845c-3.67428,-12.32448 3.03064,-21.54336 3.03064,-21.54336z" fill="#6676ff" stroke="none" stroke-width="0" stroke-linecap="butt" stroke-linejoin="miter"/><path d="M109.76691,99.45123l-4.55649,-22.21702l37.16128,-6.57174c0,0 -15.75459,1.09878 -19.99824,19.9955c-1.90311,12.48852 2.79848,52.27317 2.79848,52.27317l-33.00729,-34.38711z" fill="#000000" stroke="none" stroke-width="0" stroke-linecap="butt" stroke-linejoin="miter"/><path d="M123.4268,68.88012l-3.89522,-25.84683l23.79344,14.80299z" fill="#6676ff" stroke="none" stroke-width="0" stroke-linecap="butt" stroke-linejoin="miter"/><path d="M124.50051,62.79772l-4.05153,-17.6362l16.31953,11.72068z" fill="#ffc476" stroke="none" stroke-width="0" stroke-linecap="butt" stroke-linejoin="miter"/><path d="M223.24446,109.43653l-20.6388,34.52646c0,0 8.62434,-25.64502 7.95724,-38.26009c-1.36028,-25.72314 -8.79081,-33.72477 -8.79081,-33.72477l12.73969,5.3291l4.13563,24.72419z" fill="#000000" stroke="none" stroke-width="0" stroke-linecap="butt" stroke-linejoin="miter"/><path d="M204.44363,141.84362c-0.36166,7.34544 -15.35123,23.61019 -43.46043,22.2262c-28.10921,-1.38399 -42.44737,-20.31869 -42.08571,-27.66414c0.26702,-5.4233 14.17533,8.16222 36.22518,10.75769c7.81502,0.9199 13.46781,-9.07722 20.82342,-8.71506c5.03415,0.24786 6.60021,10.3652 10.13582,10.46013c16.20616,0.43514 18.65864,-13.09477 18.36175,-7.06482z" fill="#f0ad3c" stroke="none" stroke-width="0" stroke-linecap="butt" stroke-linejoin="miter"/><path d="M180.5383,134.10879c1.17108,0.04211 0.61936,2.00374 -1.23228,4.38143c-1.85166,2.37769 -4.30208,4.27105 -5.47317,4.22894c-1.17108,-0.04212 -0.61936,-2.00374 1.23228,-4.38143c1.85166,-2.37769 4.30208,-4.27107 5.47317,-4.22895z" fill="#000000" stroke="none" stroke-width="0" stroke-linecap="butt" stroke-linejoin="miter"/><path d="M158.08898,160.36013c-2.43022,-0.30216 -15.99901,-2.93347 -19.10547,-3.62232" fill="none" stroke="#000000" stroke-width="1.5" stroke-linecap="round" stroke-linejoin="miter"/><path d="M131.11304,188.90844c-9.65627,14.74302 -17.99918,27.48655 -20.27913,26.40754c-2.27995,-1.07901 2.03305,-15.57194 11.68933,-30.31496c9.65627,-14.74302 22.66584,-22.15322 24.9458,-21.07421c2.27995,1.07901 -6.69972,10.23861 -16.356,24.98163z" fill="#f0ad3c" stroke="none" stroke-width="0" stroke-linecap="butt" stroke-linejoin="miter"/><g fill="#d4efff" stroke="none" stroke-width="0" stroke-linecap="butt" stroke-linejoin="miter"><path d="M95.40117,215.17637l6.70097,-2.99657l2.95772,-8.14217l19.74921,7.72445l-6.72713,6.64655l0.21241,6.1592z"/><path d="M117.52657,228.00728c0.74875,7.40102 -5.83439,13.92634 -14.70387,14.57471c-8.86948,0.64836 -16.66658,-4.82575 -17.41534,-12.22678c-0.74875,-7.40102 5.83439,-13.92634 14.70387,-14.57471c8.86948,-0.64836 16.66658,4.82575 17.41534,12.22678z"/></g><path d="M192.77907,257.76635l-44.41161,-62.96362l7.48491,1.01243l49.76273,48.04702z" fill="#6676ff" stroke="none" stroke-width="0" stroke-linecap="butt" stroke-linejoin="miter"/><g stroke="none" stroke-width="0" stroke-linecap="butt" stroke-linejoin="miter"><g><path d="M203.42993,277.41621l-8.52225,-21.45673l48.40567,-5.86202l27.98451,10.41496z" fill="#ff1732"/><path d="M227.5794,271.21763c0,0 -6.70661,-5.10594 -7.58662,-7.67887c-1.154,-3.37401 1.25909,-10.82139 1.25909,-10.82139l16.66146,-1.96097c0,0 -4.24137,6.04571 -3.26652,10.11357c0.97485,4.06786 7.38732,7.08177 7.38732,7.08177z" fill="#d4efff"/></g><path d="M193.58902,265.17149l-2.17359,-7.49604l-5.26266,-5.87153l22.65944,-11.9879l3.50605,6.01747l9.14975,4.8514z" fill="#d4efff"/></g><path d="M161.4314,110.63974c-0.65518,13.3068 -7.16336,23.79981 -14.53644,23.43678c-7.37308,-0.36302 -12.81901,-11.4446 -12.16383,-24.75141c0.65518,-13.3068 7.16336,-23.79981 14.53644,-23.43678c7.37308,0.36302 12.81901,11.4446 12.16383,24.75141z" fill="#000000" stroke="none" stroke-width="0" stroke-linecap="butt" stroke-linejoin="miter"/></g></g></svg>