<svg version="1.1" xmlns="http://www.w3.org/2000/svg" xmlns:xlink="http://www.w3.org/1999/xlink" width="115.77831" height="81.24787" viewBox="0,0,115.77831,81.24787"><g transform="translate(-182.11713,-139.53225)"><g stroke-miterlimit="10"><path d="M271.9052,201.21755c-4.81575,0 14.00527,18.15756 2.00548,18.56256c-16.9191,0.57103 -27.29111,-18.56256 -30.99379,-18.56256c-14.00428,0 -26.34709,0 -33.72853,0c-8.10891,0 -25.5806,-6.74841 -26.07123,-28.91475c-0.51842,-23.4219 15.12228,-31.41357 25.88893,-31.77054c22.04927,-0.73104 50.69044,0 63.62841,0c10.63192,0 24.74759,7.70672 24.24807,31.77054c-0.34765,16.74801 -10.69683,28.91475 -24.97734,28.91475z" fill="#ffffff" stroke="none" stroke-width="0"/><path d="M271.67777,201.21069c-4.73111,0 13.75911,17.83843 1.97024,18.23631c-16.62173,0.561 -26.81144,-18.23631 -30.44904,-18.23631c-13.75814,0 -25.88401,0 -33.13572,0c-7.96639,0 -25.131,-6.6298 -25.613,-28.40655c-0.50931,-23.01024 14.85649,-30.86145 25.4339,-31.21214c21.66173,-0.7182 49.7995,0 62.51007,0c10.44505,0 24.31262,7.57127 23.82189,31.21214c-0.34154,16.45364 -10.50882,28.40655 -24.53834,28.40655z" fill="none" stroke="#909090" stroke-width="2"/><path d="M271.9052,201.21755c-4.81576,0 14.00527,18.15757 2.00548,18.56257c-16.9191,0.57104 -27.29111,-18.56257 -30.99379,-18.56257c-14.00428,0 -26.34709,0 -33.72853,0c-8.10891,0 -25.5806,-6.74841 -26.07123,-28.91476c-0.51843,-23.42191 15.12228,-31.41357 25.88893,-31.77054c22.04927,-0.73105 50.69045,0 63.62841,0c10.63192,0 24.74759,7.70672 24.24807,31.77054c-0.34765,16.74801 -10.69683,28.91476 -24.97734,28.91476z" fill="none" stroke="#000000" stroke-width="2"/><text transform="translate(192.5,167.62346) scale(0.26762,0.26762)" font-size="40" xml:space="preserve" fill="#000000" stroke="none" stroke-width="1" font-family="Sans Serif" font-weight="normal" text-anchor="start"><tspan x="0" dy="0">What do you want </tspan><tspan x="0" dy="46.150000000000006px">me to do? :3</tspan></text></g></g></svg>