<svg version="1.1" xmlns="http://www.w3.org/2000/svg" xmlns:xlink="http://www.w3.org/1999/xlink" width="198.24815" height="242.82732" viewBox="0,0,198.24815,242.82732"><defs><radialGradient cx="181.36067" cy="108.71514" r="10.63242" gradientUnits="userSpaceOnUse" id="color-1"><stop offset="0" stop-color="#6a6a6a"/><stop offset="1" stop-color="#000000"/></radialGradient><radialGradient cx="192.43457" cy="74.01673" r="5.00658" gradientUnits="userSpaceOnUse" id="color-2"><stop offset="0" stop-color="#717171"/><stop offset="1" stop-color="#000000"/></radialGradient><radialGradient cx="203.29722" cy="108.3945" r="10.63242" gradientUnits="userSpaceOnUse" id="color-3"><stop offset="0" stop-color="#6a6a6a"/><stop offset="1" stop-color="#000000"/></radialGradient><radialGradient cx="126.54885" cy="106.79133" r="17.176" gradientUnits="userSpaceOnUse" id="color-4"><stop offset="0" stop-color="#6a6a6a"/><stop offset="1" stop-color="#000000"/></radialGradient><radialGradient cx="144.43806" cy="72.09291" r="8.08781" gradientUnits="userSpaceOnUse" id="color-5"><stop offset="0" stop-color="#717171"/><stop offset="1" stop-color="#000000"/></radialGradient><radialGradient cx="161.98598" cy="106.47069" r="17.176" gradientUnits="userSpaceOnUse" id="color-6"><stop offset="0" stop-color="#6a6a6a"/><stop offset="1" stop-color="#000000"/></radialGradient></defs><g transform="translate(-90.14879,-30.59535)"><g stroke-miterlimit="10"><path d="M233.75542,217.53809l-68.12243,-17.52463l3.0533,-3.23344l64.06653,1.80504z" fill="#3749ef" stroke="none" stroke-width="0" stroke-linecap="butt" stroke-linejoin="miter"/><g stroke="none" stroke-width="0" stroke-linecap="butt" stroke-linejoin="miter"><g><path d="M254.5461,227.1174l-20.42236,-12.03397l28.22182,-34.11439l25.80139,-8.64909z" fill="#a90f21"/><path d="M266.37609,207.47148c0,0 -7.9769,-0.02086 -10.33125,-1.55012c-3.08736,-2.00539 -6.59728,-9.44576 -6.59728,-9.44576l9.75309,-11.69679c0,0 1.32865,7.42686 4.77344,10.0977c3.44479,2.67083 9.78814,1.19223 9.78814,1.19223z" fill="#99c7e2"/></g><path d="M239.57543,223.2744l-6.5992,-4.69248l-7.54096,-1.51238l6.85901,-23.38468l6.47092,2.6968l9.42971,-1.66781z" fill="#99c7e2"/></g><path d="M186.3472,183.66009c10.56335,14.39776 17.59234,27.19513 15.69968,28.58374c-1.89266,1.38861 -11.99025,-9.15739 -22.55359,-23.55516c-10.56335,-14.39776 -17.59233,-27.19514 -15.69967,-28.58374c1.89266,-1.38861 11.99025,9.1574 22.55359,23.55516z" fill="#c9902d" stroke="none" stroke-width="0" stroke-linecap="butt" stroke-linejoin="miter"/><g fill="#d4efff" stroke="none" stroke-width="0" stroke-linecap="butt" stroke-linejoin="miter"><path d="M195.8246,224.66342l-0.37089,-6.80112l-6.72419,-6.00919l14.834,-12.74351l3.87243,8.43208l6.00487,2.54239z"/><path d="M217.12241,212.13905c7.40056,2.65142 11.21032,10.9123 8.50934,18.45119c-2.70098,7.53889 -10.8899,11.50096 -18.29046,8.84954c-7.40056,-2.65142 -11.21032,-10.9123 -8.50934,-18.45119c2.70098,-7.53889 10.8899,-11.50096 18.29046,-8.84954z"/></g><path d="M206.70833,242.55368l-3.5,-7.29167l9.29167,-4.25l3.75,8.54167z" fill="#99c7e2" stroke="none" stroke-width="0" stroke-linecap="butt" stroke-linejoin="miter"/><g stroke="none" stroke-width="0"><path d="M180.72362,182.20284c0,13.16278 -3.3146,13.89933 -10.73876,18.16666c-7.42416,4.26734 -16.79111,4.67497 -23.99218,1.79637c-8.50195,-3.39863 -12.83985,-10.7709 -12.83985,-10.7709c0,0 13.01999,-0.5005 13.01999,-7.8588c0,-7.54138 -16.37148,-5.96519 -16.37148,-5.96519c0,0 6.89032,-19.19107 27.4215,-19.20148c20.53118,-0.01041 23.50078,10.67055 23.50078,23.83334z" fill="#6676ff" stroke-linecap="round" stroke-linejoin="round"/><path d="M180,180c0,10.58546 -5.74568,19.16667 -12.83333,19.16667c-7.08765,0 -12.83333,-8.58121 -12.83333,-19.16667c0,-10.58546 5.74568,-19.16667 12.83333,-19.16667c7.08765,0 12.83333,8.58121 12.83333,19.16667z" fill="#f0ad3c" stroke-linecap="butt" stroke-linejoin="miter"/></g><path d="M180.52491,53.91262l19.89131,-18.46074l-1.4904,28.05635z" fill="#3749ef" stroke="none" stroke-width="0" stroke-linecap="butt" stroke-linejoin="miter"/><path d="M200.79378,70.38704c7.36602,4.35554 8.75604,15.33173 8.92515,29.54355c0.17806,14.96262 -3.34555,35.86754 -9.17068,40.78418c-13.48212,11.37942 -31.90548,16.39995 -36.46873,16.39995c-0.25846,0 -32.03236,-18.61772 -32.03236,-18.93602c0,-11.10995 -9.7802,-36.28478 0.77186,-56.25595c10.55206,-19.97116 32.07798,-15.86885 38.22534,-3.5189c6.59093,13.24108 8.03295,38.75957 8.03295,38.75957c0,0 2.72133,-22.61007 7.59431,-37.32137c3.49292,-10.54495 7.80878,-13.18812 14.12215,-9.455z" fill="#ef3b3b" stroke="none" stroke-width="0" stroke-linecap="butt" stroke-linejoin="miter"/><g stroke="none" stroke-linecap="butt" stroke-linejoin="miter"><path d="M205.1674,107.17517c0,20.32832 -5.6564,36.80768 -12.63393,36.80768c-6.97753,0 -12.63393,-16.47936 -12.63393,-36.80768c0,-20.32831 5.6564,-36.80768 12.63393,-36.80768c6.97753,0 12.63393,16.47936 12.63393,36.80768z" fill="#000000" stroke-width="0"/><g><path d="M180.78844,108.3945c0,9.48603 2.05,17.65695 1.76312,17.65695c-0.28686,0 -2.40499,-8.33123 -2.40499,-17.81727c0,-9.48603 1.52269,-17.176 1.80955,-17.176c0.28686,0 -1.16768,7.85027 -1.16768,17.33632z" fill="url(#color-1)" stroke-width="0"/><g fill="none" stroke-width="1" font-family="sans-serif" font-weight="normal" font-size="12" text-anchor="start"/></g><path d="M197.44115,74.01673c0,0.44434 -2.27969,-2.59424 -5.04474,-2.59424c-2.76506,0 -4.96841,3.03857 -4.96841,2.59424c0,-0.44434 2.31786,-3.2229 5.08291,-3.2229c2.76506,0 4.93024,2.77857 4.93024,3.2229z" fill="url(#color-2)" stroke-width="0"/><g><path d="M202.70178,90.73755c0.28687,0 1.80954,7.68996 1.80954,17.176c0,9.48603 -2.11813,17.81727 -2.40499,17.81727c-0.28687,0 1.76312,-8.17092 1.76312,-17.65695c0,-9.48603 -1.45454,-17.33632 -1.16767,-17.33632z" fill="url(#color-3)" stroke-width="0"/><g fill="none" stroke-width="1" font-family="sans-serif" font-weight="normal" font-size="12" text-anchor="start"/></g></g><g stroke="none" stroke-linecap="butt" stroke-linejoin="miter"><path d="M165.00715,105.25136c0,20.32832 -9.13757,36.80768 -20.40933,36.80768c-11.27176,0 -20.40933,-16.47936 -20.40933,-36.80768c0,-20.32831 9.13757,-36.80768 20.40933,-36.80768c11.27176,0 20.40933,16.47936 20.40933,36.80768z" fill="#000000" stroke-width="0"/><g><path d="M125.62445,106.47069c0,9.48603 3.31163,17.65695 2.84822,17.65695c-0.46341,0 -3.88512,-8.33123 -3.88512,-17.81727c0,-9.48603 2.4598,-17.176 2.92321,-17.176c0.46341,0 -1.88631,7.85027 -1.88631,17.33632z" fill="url(#color-4)" stroke-width="0"/><g fill="none" stroke-width="1" font-family="sans-serif" font-weight="normal" font-size="12" text-anchor="start"/></g><path d="M152.52587,72.09291c0,0.44434 -3.6827,-2.59424 -8.14947,-2.59424c-4.46677,0 -8.02615,3.03857 -8.02615,2.59424c0,-0.44434 3.74436,-3.2229 8.21113,-3.2229c4.46677,0 7.96448,2.77857 7.96448,3.2229z" fill="url(#color-5)" stroke-width="0"/><g><path d="M161.02408,88.81374c0.46342,0 2.92321,7.68996 2.92321,17.176c0,9.48603 -3.4217,17.81727 -3.88512,17.81727c-0.46341,0 2.84822,-8.17092 2.84822,-17.65695c0,-9.48603 -2.34973,-17.33632 -1.88631,-17.33632z" fill="url(#color-6)" stroke-width="0"/><g fill="none" stroke-width="1" font-family="sans-serif" font-weight="normal" font-size="12" text-anchor="start"/></g></g><path d="M90.53675,136.10807c0,0 -2.0519,-37.42407 9.67157,-52.60223c11.72347,-15.17815 25.9065,-16.39702 25.9065,-16.39702l-16.6797,-1.92862c0,0 17.29968,-19.6124 44.86811,-18.71985c53.23335,1.72349 54.16227,21.42505 57.66763,50.18821c0.38663,3.17245 -2.09567,19.36408 -4.27274,29.43398c-1.21148,5.60359 -2.66897,8.24737 -2.66897,8.24737c0,0 -0.47695,1.36533 -0.65324,1.94909c-2.00649,6.64463 -2.78574,3.12259 -3.94577,6.67415c0.44842,-2.59695 4.60175,-7.80201 6.05261,-13.60364c1.33608,-5.34263 -4.99809,10.54093 -5.58506,14.42097c-0.58781,3.88559 4.568,-4.23006 0.88236,-6.40938c-6.31337,-3.7331 4.17077,-7.48995 0.67785,3.05501c-4.87298,14.7113 -22.92712,-2.33788 -22.92712,-2.33788c0,0 -31.90921,18.34076 -38.50014,5.09968c-6.14736,-12.34995 21.92673,-25.65226 11.37466,-5.6811c-10.55206,19.97116 -20.57186,-10.05401 -20.57186,1.05595c0,0.31831 31.7739,18.93602 32.03236,18.93602c4.56324,0 25.12417,-7.69248 38.60629,-19.0719c0.01779,-0.01501 0.03553,-0.03015 0.05323,-0.04541c-1.60768,3.32427 -3.30836,6.36798 -5.01408,8.97532c-3.11918,4.76795 -13.23766,8.78825 -25.73181,10.51777c-16.10956,2.22998 -19.36308,-2.07141 -30.20127,2.61455c-15.75709,6.81268 -22.13786,11.76634 -22.13786,11.76634c0,0 -13.10424,-11.27109 -16.9507,-24.10672c-3.84647,-12.83564 1.76993,-22.92883 1.76993,-22.92883z" fill="#6676ff" stroke="none" stroke-width="0" stroke-linecap="butt" stroke-linejoin="miter"/><path d="M120.59103,129.68685l-2.20484,-6.26876l30.64786,18.08711c0,0 -3.42477,0.10652 -8.04071,-1.56321c-3.36744,-1.21812 -8.23662,-5.69139 -10.16381,-4.3766c-2.24067,1.52866 2.7338,8.88909 2.7338,8.88909l-27.24476,-20.90172z" fill="#000000" stroke="none" stroke-width="0" stroke-linecap="butt" stroke-linejoin="miter"/><path d="M133.99986,56.07203l10.00389,-25.22668l10.73558,25.96396z" fill="#6676ff" stroke="none" stroke-width="0" stroke-linecap="butt" stroke-linejoin="miter"/><path d="M137.87385,51.19859l5.7618,-17.95739l6.57626,19.21202z" fill="#ffc476" stroke="none" stroke-width="0" stroke-linecap="butt" stroke-linejoin="miter"/><path d="M215.80405,126.80215l-11.65116,12.73467c0,0 -1.56519,4.26212 -3.10772,4.16468c-3.14532,-0.19868 -5.12047,1.83904 -5.12047,1.83904l13.5809,-21.68284l2.4215,5.22131z" fill="#000000" stroke="none" stroke-width="0" stroke-linecap="butt" stroke-linejoin="miter"/><path d="M205.1674,135.51183c0,7.78288 -12.74829,25.75464 -38.06502,25.75464c-25.31674,0 -39.03689,-19.26758 -39.03689,-27.05047c0,-5.74626 13.09731,7.88967 33.02344,9.48553c7.06232,0.56561 11.69898,-10.29542 18.32385,-10.29542c4.53403,0 6.38868,10.61242 9.56954,10.52876c14.58013,-0.38346 16.1851,-14.81207 16.1851,-8.42303z" fill="#f0ad3c" stroke="none" stroke-width="0" stroke-linecap="butt" stroke-linejoin="miter"/><path d="M183.34681,128.58029c1.05406,-0.01644 0.64513,2.08571 -0.91335,4.69527c-1.55849,2.60956 -3.67638,4.73834 -4.73045,4.75478c-1.05406,0.01643 -0.64513,-2.08571 0.91335,-4.69527c1.55849,-2.60956 3.67638,-4.73836 4.73045,-4.75479z" fill="#000000" stroke="none" stroke-width="0" stroke-linecap="butt" stroke-linejoin="miter"/><path d="M161.11982,149.20347c0,0 -4.90325,4.8359 -8.99285,4.23772c-2.18615,-0.31977 -4.63138,-7.74994 -4.63138,-7.74994c0,0 -5.61397,4.16565 -8.40844,3.43666c-4.77702,-1.24618 -4.41973,-8.14072 -4.41973,-8.14072" fill="none" stroke="#000000" stroke-width="1.5" stroke-linecap="round" stroke-linejoin="miter"/><path d="M140.86494,192.31526c-8.68646,15.60209 -17.39088,27.32441 -19.44185,26.18253c-2.05097,-1.14188 3.32815,-14.71555 12.01462,-30.31764c8.68646,-15.60209 17.39088,-27.32441 19.44185,-26.18253c2.05097,1.14188 -3.32815,14.71555 -12.01462,30.31764z" fill="#f0ad3c" stroke="none" stroke-width="0" stroke-linecap="butt" stroke-linejoin="miter"/><g fill="#d4efff" stroke="none" stroke-width="0" stroke-linecap="butt" stroke-linejoin="miter"><path d="M107.54031,218.35003l6.02797,-3.17118l2.66066,-8.61661l17.76573,8.17455l-6.0515,7.03385l0.19108,6.5181z"/><path d="M127.44358,231.92859c0.67355,7.83228 -5.24843,14.73783 -13.22711,15.42397c-7.97868,0.68614 -14.9927,-5.10695 -15.66625,-12.93924c-0.67355,-7.83228 5.24843,-14.73783 13.22711,-15.42397c7.97868,-0.68614 14.9927,5.10695 15.66625,12.93924z"/></g><path d="M198.83333,253.67868l-47,-52.33333l4.33333,-1l52.33333,37z" fill="#6676ff" stroke="none" stroke-width="0" stroke-linecap="butt" stroke-linejoin="miter"/><g stroke="none" stroke-width="0" stroke-linecap="butt" stroke-linejoin="miter"><g><path d="M210.83333,273.17267l-10.33333,-21.33333l42.39558,-12.76233l26.27109,7.09567z" fill="#ff1732"/><path d="M231.56667,263.37268c0,0 -6.62897,-4.43712 -7.74158,-7.01466c-1.45901,-3.38004 -0.25842,-11.51867 -0.25842,-11.51867l14.6,-4.33333c0,0 -3.00895,6.91881 -1.62109,11.05085c1.38786,4.13204 7.48776,6.41582 7.48776,6.41582z" fill="#d4efff"/></g><path d="M200.5,261.67868l-2.89367,-7.56277l-5.43966,-5.43723l18.66667,-15.66667l3.89263,5.83034l8.77403,3.83632z" fill="#d4efff"/></g><path d="M90.3988,273.17267v-242.32732h197.74815v242.32732z" fill-opacity="0.01569" fill="#000000" stroke-opacity="0.02353" stroke="#000000" stroke-width="0.5" stroke-linecap="butt" stroke-linejoin="miter"/></g></g></svg>