<svg version="1.1" xmlns="http://www.w3.org/2000/svg" xmlns:xlink="http://www.w3.org/1999/xlink" width="212.24815" height="234.82732" viewBox="0,0,212.24815,234.82732"><defs><radialGradient cx="180.80051" cy="114.14441" r="11.38516" gradientUnits="userSpaceOnUse" id="color-1"><stop offset="0" stop-color="#6a6a6a"/><stop offset="1" stop-color="#000000"/></radialGradient><radialGradient cx="192.65841" cy="80.5915" r="5.36103" gradientUnits="userSpaceOnUse" id="color-2"><stop offset="0" stop-color="#717171"/><stop offset="1" stop-color="#000000"/></radialGradient><radialGradient cx="204.2901" cy="113.83435" r="11.38516" gradientUnits="userSpaceOnUse" id="color-3"><stop offset="0" stop-color="#6a6a6a"/><stop offset="1" stop-color="#000000"/></radialGradient><radialGradient cx="122.10817" cy="112.28411" r="18.39201" gradientUnits="userSpaceOnUse" id="color-4"><stop offset="0" stop-color="#6a6a6a"/><stop offset="1" stop-color="#000000"/></radialGradient><radialGradient cx="141.26388" cy="78.7312" r="8.6604" gradientUnits="userSpaceOnUse" id="color-5"><stop offset="0" stop-color="#717171"/><stop offset="1" stop-color="#000000"/></radialGradient><radialGradient cx="160.05414" cy="111.97406" r="18.39201" gradientUnits="userSpaceOnUse" id="color-6"><stop offset="0" stop-color="#6a6a6a"/><stop offset="1" stop-color="#000000"/></radialGradient></defs><g transform="translate(-83.1488,-38.59535)"><g stroke-miterlimit="10"><path d="M83.3988,273.17267v-234.32732h211.74815v234.32732z" fill-opacity="0.01569" fill="#000000" stroke-opacity="0.02353" stroke="#000000" stroke-width="0.5" stroke-linecap="butt" stroke-linejoin="miter"/><path d="M236.90465,219.37477l-72.9453,-16.94609l3.26946,-3.12669l68.60226,1.74545z" fill="#3749ef" stroke="none" stroke-width="0" stroke-linecap="butt" stroke-linejoin="miter"/><g stroke="none" stroke-width="0" stroke-linecap="butt" stroke-linejoin="miter"><g><path d="M259.16725,228.63783l-21.8682,-11.63669l30.21984,-32.98816l27.62805,-8.36356z" fill="#a90f21"/><path d="M271.83477,209.64049c0,0 -8.54164,-0.02017 -11.06267,-1.49895c-3.30594,-1.93919 -7.06435,-9.13393 -7.06435,-9.13393l10.44358,-11.31064c0,0 1.42271,7.18168 5.11139,9.76434c3.68867,2.58266 10.48111,1.15287 10.48111,1.15287z" fill="#99c7e2"/></g><path d="M243.1367,224.9217l-7.0664,-4.53757l-8.07484,-1.46245l7.34461,-22.61268l6.92904,2.60777l10.09731,-1.61275z" fill="#99c7e2"/></g><path d="M186.14007,186.61519c11.3112,13.92244 18.83783,26.29733 16.81117,27.6401c-2.02665,1.34277 -12.83913,-8.85508 -24.15032,-22.77753c-11.3112,-13.92244 -18.83782,-26.29734 -16.81116,-27.6401c2.02665,-1.34277 12.83913,8.85508 24.15032,22.77753z" fill="#c9902d" stroke="none" stroke-width="0" stroke-linecap="butt" stroke-linejoin="miter"/><g fill="#d4efff" stroke="none" stroke-width="0" stroke-linecap="butt" stroke-linejoin="miter"><path d="M196.28844,226.26487l-0.39715,-6.57659l-7.20024,-5.81081l15.8842,-12.32281l4.14659,8.15371l6.43,2.45846z"/><path d="M219.09407,214.15397c7.9245,2.56389 12.00398,10.55205 9.11178,17.84206c-2.8922,7.29001 -11.66087,11.12128 -19.58537,8.55739c-7.9245,-2.56389 -12.00398,-10.55205 -9.11178,-17.84206c2.8922,-7.29001 11.66087,-11.12128 19.58537,-8.55739z"/></g><path d="M207.94271,243.56451l-3.74779,-7.05095l9.94949,-4.10969l4.01549,8.25968z" fill="#99c7e2" stroke="none" stroke-width="0" stroke-linecap="butt" stroke-linejoin="miter"/><g stroke="none" stroke-width="0"><path d="M180.11835,185.20605c0,12.72823 -3.54926,13.44047 -11.49903,17.56692c-7.94977,4.12646 -17.97987,4.52063 -25.69076,1.73707c-9.10386,-3.28643 -13.74887,-10.41532 -13.74887,-10.41532c0,0 13.94177,-0.48398 13.94177,-7.59936c0,-7.29241 -17.53053,-5.76826 -17.53053,-5.76826c0,0 7.37813,-18.55751 29.36286,-18.56758c21.98473,-0.01007 25.16457,10.31828 25.16457,23.04653z" fill="#6676ff" stroke-linecap="round" stroke-linejoin="round"/><path d="M179.3435,183.07593c0,10.236 -6.15246,18.53392 -13.74189,18.53392c-7.58944,0 -13.74189,-8.29792 -13.74189,-18.53392c0,-10.236 6.15246,-18.53392 13.74189,-18.53392c7.58944,0 13.74189,8.29792 13.74189,18.53392z" fill="#f0ad3c" stroke-linecap="butt" stroke-linejoin="miter"/></g><path d="M179.90558,61.1511l21.29956,-17.85129l-1.59592,27.13012z" fill="#3749ef" stroke="none" stroke-width="0" stroke-linecap="butt" stroke-linejoin="miter"/><path d="M201.60942,77.08164c7.88751,4.21175 9.37594,14.82558 9.55702,28.56822c0.19067,14.46866 -3.58241,34.68344 -9.81994,39.43776c-14.43662,11.00375 -34.1643,15.85854 -39.05061,15.85854c-0.27676,0 -34.30016,-18.00309 -34.30016,-18.31088c0,-10.74318 -10.47261,-35.0869 0.82651,-54.39876c11.29912,-19.31185 34.34901,-15.34497 40.93158,-3.40273c7.05755,12.80395 8.60166,37.47999 8.60166,37.47999c0,0 2.91399,-21.86364 8.13197,-36.08927c3.74021,-10.19683 8.36162,-12.75274 15.12196,-9.14286z" fill="#ef3b3b" stroke="none" stroke-width="0" stroke-linecap="butt" stroke-linejoin="miter"/><g stroke="none" stroke-linecap="butt" stroke-linejoin="miter"><path d="M206.29268,112.65528c0,19.65722 -6.05686,35.59254 -13.52838,35.59254c-7.47152,0 -13.52838,-15.93532 -13.52838,-35.59254c0,-19.65721 6.05686,-35.59254 13.52838,-35.59254c7.47152,0 13.52838,15.93532 13.52838,35.59254z" fill="#000000" stroke-width="0"/><g><path d="M180.18776,113.83435c0,9.17287 2.19513,17.07404 1.88794,17.07404c-0.30717,0 -2.57526,-8.05619 -2.57526,-17.22906c0,-9.17287 1.63049,-16.60897 1.93766,-16.60897c0.30717,0 -1.25035,7.59111 -1.25035,16.76399z" fill="url(#color-1)" stroke-width="0"/><g fill="none" stroke-width="1" font-family="sans-serif" font-weight="normal" font-size="12" text-anchor="start"/></g><path d="M198.01944,80.5915c0,0.42967 -2.44109,-2.5086 -5.40189,-2.5086c-2.96082,0 -5.32016,2.93826 -5.32016,2.5086c0,-0.42967 2.48196,-3.1165 5.44277,-3.1165c2.96082,0 5.27929,2.68684 5.27929,3.1165z" fill="url(#color-2)" stroke-width="0"/><g><path d="M203.6525,96.76032c0.30718,0 1.93765,7.43609 1.93765,16.60897c0,9.17287 -2.26809,17.22906 -2.57526,17.22906c-0.30718,0 1.88794,-7.90117 1.88794,-17.07404c0,-9.17287 -1.55752,-16.76399 -1.25034,-16.76399z" fill="url(#color-3)" stroke-width="0"/><g fill="none" stroke-width="1" font-family="sans-serif" font-weight="normal" font-size="12" text-anchor="start"/></g></g><g stroke="none" stroke-linecap="butt" stroke-linejoin="miter"><path d="M163.2892,110.79498c0,19.65722 -9.78448,35.59254 -21.85425,35.59254c-12.06977,0 -21.85425,-15.93532 -21.85425,-35.59254c0,-19.65721 9.78448,-35.59254 21.85425,-35.59254c12.06977,0 21.85425,15.93532 21.85425,35.59254z" fill="#000000" stroke-width="0"/><g><path d="M121.11832,111.97406c0,9.17287 3.54608,17.07404 3.04987,17.07404c-0.49622,0 -4.16018,-8.05619 -4.16018,-17.22906c0,-9.17287 2.63395,-16.60897 3.13016,-16.60897c0.49622,0 -2.01986,7.59111 -2.01986,16.76399z" fill="url(#color-4)" stroke-width="0"/><g fill="none" stroke-width="1" font-family="sans-serif" font-weight="normal" font-size="12" text-anchor="start"/></g><path d="M149.92428,78.7312c0,0.42967 -3.94342,-2.5086 -8.72643,-2.5086c-4.783,0 -8.59438,2.93826 -8.59438,2.5086c0,-0.42967 4.00945,-3.1165 8.79245,-3.1165c4.783,0 8.52834,2.68684 8.52834,3.1165z" fill="url(#color-5)" stroke-width="0"/><g><path d="M159.02414,94.90002c0.49623,0 3.13016,7.43609 3.13016,16.60897c0,9.17287 -3.66395,17.22906 -4.16018,17.22906c-0.49622,0 3.04987,-7.90117 3.04987,-17.07404c0,-9.17287 -2.51608,-16.76399 -2.01986,-16.76399z" fill="url(#color-6)" stroke-width="0"/><g fill="none" stroke-width="1" font-family="sans-serif" font-weight="normal" font-size="12" text-anchor="start"/></g></g><path d="M83.54651,140.63301c0,0 -2.19717,-36.18858 10.35629,-50.86566c12.55346,-14.67707 27.74061,-15.8557 27.74061,-15.8557l-17.86057,-1.86495c0,0 18.52445,-18.96493 48.04464,-18.10185c57.00212,1.66659 57.9968,20.71774 61.75033,48.53134c0.414,3.06772 -2.24404,18.72481 -4.57524,28.46227c-1.29725,5.4186 -2.85793,7.9751 -2.85793,7.9751c0,0 -0.51072,1.32026 -0.69949,1.88474c-2.14854,6.42527 -2.98296,3.0195 -4.22512,6.45381c0.48017,-2.51122 4.92754,-7.54444 6.48112,-13.15454c2.86338,-10.33988 3.3033,-23.01093 3.23643,-28.086c-0.18109,-13.74264 -1.66952,-24.35647 -9.55702,-28.56822c-6.76034,-3.60986 -11.38175,-1.05397 -15.12196,9.14287c-5.21797,14.22563 -7.84586,39.70653 -7.84586,39.70653c0,0 -1.83022,-28.2933 -8.88777,-41.09725c-6.58258,-11.94224 -29.63246,-15.90912 -40.93158,3.40273c-11.29912,19.31185 -0.82651,43.65558 -0.82651,54.39876c0,0.3078 34.0234,18.31088 34.30016,18.31088c4.8863,0 26.90289,-7.43853 41.3395,-18.44228c0.01905,-0.01451 0.03805,-0.02915 0.057,-0.04391c-1.7215,3.21453 -3.54258,6.15775 -5.36906,8.67902c-3.34001,4.61054 -14.17485,8.49812 -27.55355,10.17054c-17.25007,2.15636 -20.73393,-2.00303 -32.33943,2.52824c-16.87265,6.58777 -23.70516,11.3779 -23.70516,11.3779c0,0 -14.03198,-10.899 -18.15076,-23.31088c-4.11879,-12.41189 1.89524,-22.17188 1.89524,-22.17188z" fill="#6676ff" stroke="none" stroke-width="0" stroke-linecap="butt" stroke-linejoin="miter"/><path d="M113.52747,101.49193l-5.43615,-22.47861l37.19463,-3.10049c0,0 -19.50048,3.45934 -22.02768,29.68238c-1.23938,12.86023 7.14983,39.56207 7.14983,39.56207l-33.38481,-33.48583z" fill="#000000" stroke="none" stroke-width="0" stroke-linecap="butt" stroke-linejoin="miter"/><path d="M130.08669,63.23922l10.71214,-24.39387l11.49563,25.10681z" fill="#6676ff" stroke="none" stroke-width="0" stroke-linecap="butt" stroke-linejoin="miter"/><path d="M134.23494,58.52666l6.16972,-17.36456l7.04184,18.57777z" fill="#ffc476" stroke="none" stroke-width="0" stroke-linecap="butt" stroke-linejoin="miter"/><path d="M222.84562,105.98719l-18.22083,36.32795c0,0 4.44086,-25.30662 3.20148,-38.16685c-2.5272,-26.22304 -9.72485,-27.66706 -9.72485,-27.66706l14.82064,-2.8938l5.15002,25.06235z" fill="#000000" stroke="none" stroke-width="0" stroke-linecap="butt" stroke-linejoin="miter"/><path d="M206.29268,140.05645c0,7.52594 -13.65083,24.9044 -40.75991,24.9044c-27.10909,0 -41.80059,-18.6315 -41.80059,-26.15745c0,-5.55656 14.02456,7.62921 35.3614,9.17238c7.56231,0.54694 12.52723,-9.95554 19.62113,-9.95554c4.85503,0 6.84098,10.26207 10.24704,10.18117c15.61236,-0.3708 17.33096,-14.32308 17.33096,-8.14496z" fill="#f0ad3c" stroke="none" stroke-width="0" stroke-linecap="butt" stroke-linejoin="miter"/><path d="M182.92726,133.35375c1.12868,-0.0159 0.6908,2.01685 -0.97801,4.54026c-1.66883,2.52341 -3.93666,4.58191 -5.06535,4.59781c-1.12868,0.01589 -0.6908,-2.01685 0.97801,-4.54026c1.66883,-2.52341 3.93666,-4.58193 5.06535,-4.59782z" fill="#000000" stroke="none" stroke-width="0" stroke-linecap="butt" stroke-linejoin="miter"/><path d="M159.12666,153.29609c0,0 -5.25039,4.67625 -9.62952,4.09782c-2.34092,-0.30921 -4.95927,-7.49409 -4.95927,-7.49409c0,0 -6.01142,4.02813 -9.00373,3.3232c-5.11522,-1.20504 -4.73263,-7.87197 -4.73263,-7.87197" fill="none" stroke="#000000" stroke-width="1.5" stroke-linecap="round" stroke-linejoin="miter"/><path d="M137.43779,194.98462c-9.30144,15.08702 -18.6221,26.42234 -20.81828,25.31816c-2.19617,-1.10418 3.56377,-14.22974 12.86522,-29.31676c9.30144,-15.08702 18.6221,-26.42234 20.81828,-25.31816c2.19617,1.10418 -3.56377,14.22974 -12.86522,29.31676z" fill="#f0ad3c" stroke="none" stroke-width="0" stroke-linecap="butt" stroke-linejoin="miter"/><g fill="#d4efff" stroke="none" stroke-width="0" stroke-linecap="butt" stroke-linejoin="miter"><path d="M101.75388,220.1599l6.45473,-3.06649l2.84903,-8.33215l19.02349,7.90468l-6.47993,6.80164l0.20461,6.30292z"/><path d="M123.06624,233.29019c0.72124,7.57371 -5.62,14.25129 -14.16355,14.91478c-8.54355,0.66349 -16.05414,-4.93835 -16.77538,-12.51207c-0.72124,-7.57371 5.62,-14.25129 14.16355,-14.91478c8.54355,-0.66349 16.05414,4.93835 16.77538,12.51207z"/></g><path d="M199.51018,254.32224l-50.32746,-50.60564l4.64012,-0.96699l56.03838,35.77851z" fill="#6676ff" stroke="none" stroke-width="0" stroke-linecap="butt" stroke-linejoin="miter"/><g stroke="none" stroke-width="0" stroke-linecap="butt" stroke-linejoin="miter"><g><path d="M212.35975,273.17267l-11.0649,-20.62905l45.39707,-12.341l28.13101,6.86142z" fill="#ff1732"/><path d="M234.56095,263.69621c0,0 -7.09828,-4.29064 -8.28966,-6.78308c-1.5623,-3.26845 -0.27672,-11.1384 -0.27672,-11.1384l15.63364,-4.19027c0,0 -3.22198,6.6904 -1.73586,10.68603c1.48612,3.99563 8.01787,6.20401 8.01787,6.20401z" fill="#d4efff"/></g><path d="M201.29485,262.05813l-3.09853,-7.3131l-5.82477,-5.25773l19.98822,-15.14946l4.16822,5.63786l9.39521,3.70967z" fill="#d4efff"/></g></g></g></svg>