<svg version="1.1" xmlns="http://www.w3.org/2000/svg" xmlns:xlink="http://www.w3.org/1999/xlink" width="214.24815" height="233.82732" viewBox="0,0,214.24815,233.82732"><g transform="translate(-82.1488,-39.59535)"><g stroke-miterlimit="10"><path d="M82.3988,273.17267v-233.32732h213.74815v233.32732z" fill-opacity="0.01569" fill="#000000" stroke-opacity="0.02353" stroke="#000000" stroke-width="0.5" stroke-linecap="butt" stroke-linejoin="miter"/><path d="M237.35454,219.60435l-73.63428,-16.87377l3.30034,-3.11335l69.25022,1.738z" fill="#3749ef" stroke="none" stroke-width="0" stroke-linecap="butt" stroke-linejoin="miter"/><g stroke="none" stroke-width="0" stroke-linecap="butt" stroke-linejoin="miter"><g><path d="M259.82741,228.82788l-22.07475,-11.58703l30.50527,-32.84738l27.889,-8.32787z" fill="#a90f21"/><path d="M272.61458,209.91162c0,0 -8.62232,-0.02008 -11.16716,-1.49255c-3.33717,-1.93091 -7.13107,-9.09495 -7.13107,-9.09495l10.54222,-11.26237c0,0 1.43615,7.15103 5.15967,9.72267c3.72351,2.57164 10.58011,1.14795 10.58011,1.14795z" fill="#99c7e2"/></g><path d="M243.64545,225.12761l-7.13314,-4.51821l-8.15111,-1.45621l7.41398,-22.51618l6.99449,2.59664l10.19268,-1.60587z" fill="#99c7e2"/></g><path d="M186.11048,186.98458c11.41804,13.86303 19.01576,26.18511 16.96995,27.52214c-2.04579,1.33704 -12.9604,-8.81729 -24.37842,-22.68033c-11.41804,-13.86303 -19.01575,-26.18512 -16.96994,-27.52214c2.04579,-1.33704 12.9604,8.81729 24.37842,22.68033z" fill="#c9902d" stroke="none" stroke-width="0" stroke-linecap="butt" stroke-linejoin="miter"/><g fill="#d4efff" stroke="none" stroke-width="0" stroke-linecap="butt" stroke-linejoin="miter"><path d="M196.3547,226.46505l-0.4009,-6.54852l-7.26825,-5.78601l16.03423,-12.27022l4.18576,8.11891l6.49073,2.44797z"/><path d="M219.37573,214.40583c7.99935,2.55295 12.11736,10.50702 9.19784,17.76592c-2.91952,7.2589 -11.77101,11.07382 -19.77036,8.52087c-7.99935,-2.55295 -12.11736,-10.50702 -9.19784,-17.76592c2.91952,-7.2589 11.77101,-11.07382 19.77036,-8.52087z"/></g><path d="M208.11905,243.69086l-3.78319,-7.02086l10.04346,-4.09215l4.05342,8.22443z" fill="#99c7e2" stroke="none" stroke-width="0" stroke-linecap="butt" stroke-linejoin="miter"/><g stroke="none" stroke-width="0"><path d="M180.03188,185.58145c0,12.67391 -3.58278,13.38311 -11.60764,17.49195c-8.02486,4.10885 -18.14969,4.50134 -25.93341,1.72966c-9.18985,-3.27241 -13.87873,-10.37087 -13.87873,-10.37087c0,0 14.07345,-0.48191 14.07345,-7.56693c0,-7.26129 -17.69611,-5.74364 -17.69611,-5.74364c0,0 7.44782,-18.47832 29.6402,-18.48834c22.19238,-0.01003 25.40225,10.27425 25.40225,22.94818z" fill="#6676ff" stroke-linecap="round" stroke-linejoin="round"/><path d="M179.24971,183.46042c0,10.19232 -6.21057,18.45483 -13.87168,18.45483c-7.66112,0 -13.87168,-8.26251 -13.87168,-18.45483c0,-10.19232 6.21057,-18.45483 13.87168,-18.45483c7.66112,0 13.87168,8.26251 13.87168,18.45483z" fill="#f0ad3c" stroke-linecap="butt" stroke-linejoin="miter"/></g><path d="M179.8171,62.05591l21.50074,-17.77511l-1.61099,27.01434z" fill="#3749ef" stroke="none" stroke-width="0" stroke-linecap="butt" stroke-linejoin="miter"/><path d="M201.72594,77.91847c7.96201,4.19378 9.4645,14.76231 9.64729,28.4463c0.19247,14.40691 -3.61625,34.53543 -9.91269,39.26946c-14.57298,10.95679 -34.48699,15.79086 -39.41945,15.79086c-0.27937,0 -34.62413,-17.92626 -34.62413,-18.23274c0,-10.69733 -10.57153,-34.93717 0.83432,-54.16661c11.40584,-19.22944 34.67344,-15.27948 41.31819,-3.38821c7.12421,12.74931 8.6829,37.32004 8.6829,37.32004c0,0 2.94151,-21.77034 8.20878,-35.93526c3.77554,-10.15331 8.4406,-12.69832 15.26479,-9.10384z" fill="#ef3b3b" stroke="none" stroke-width="0" stroke-linecap="butt" stroke-linejoin="miter"/><path d="M82.5479,141.19863c0,0 -2.21792,-36.03414 10.45411,-50.64859c12.67203,-14.61444 28.00263,-15.78804 28.00263,-15.78804l-18.02927,-1.85699c0,0 18.69942,-18.884 48.49843,-18.0246c57.54052,1.65948 58.54459,20.62933 62.33357,48.32423c0.41791,3.05463 -2.26524,18.6449 -4.61845,28.34081c-1.3095,5.39548 -2.88492,7.94107 -2.88492,7.94107c0,0 -0.51554,1.31463 -0.7061,1.8767c-2.16883,6.39785 -3.01113,3.00661 -4.26503,6.42627c0.48471,-2.5005 4.97408,-7.51224 6.54234,-13.0984c2.89043,-10.29575 3.3345,-22.91273 3.267,-27.96614c-0.1828,-13.68399 -1.68529,-24.25253 -9.64729,-28.4463c-6.82419,-3.59445 -11.48925,-1.04947 -15.26479,9.10385c-5.26725,14.16492 -7.91997,39.53708 -7.91997,39.53708c0,0 -1.84751,-28.17256 -8.97172,-40.92187c-6.64475,-11.89128 -29.91234,-15.84123 -41.31819,3.38821c-11.40584,19.22944 -0.83432,43.46928 -0.83432,54.16661c0,0.30649 34.34476,18.23274 34.62413,18.23274c4.93245,0 27.15699,-7.40679 41.72996,-18.36358c0.01923,-0.01445 0.03841,-0.02903 0.05754,-0.04372c-1.73776,3.20081 -3.57604,6.13147 -5.41977,8.64198c-3.37156,4.59086 -14.30873,8.46185 -27.8138,10.12714c-17.413,2.14716 -20.92977,-1.99448 -32.64488,2.51745c-17.03202,6.55966 -23.92906,11.32934 -23.92906,11.32934c0,0 -14.16451,-10.85249 -18.3222,-23.2114c-4.15769,-12.35892 1.91314,-22.07726 1.91314,-22.07726z" fill="#6676ff" stroke="none" stroke-width="0" stroke-linecap="butt" stroke-linejoin="miter"/><path d="M112.81204,102.22458l-5.4875,-22.38268l37.54594,-3.08726c0,0 -19.68467,3.44458 -22.23574,29.55571c-1.25109,12.80535 7.21736,39.39324 7.21736,39.39324l-33.70014,-33.34293z" fill="#000000" stroke="none" stroke-width="0" stroke-linecap="butt" stroke-linejoin="miter"/><path d="M129.52766,64.13512l10.81332,-24.28977l11.60421,24.99967z" fill="#6676ff" stroke="none" stroke-width="0" stroke-linecap="butt" stroke-linejoin="miter"/><path d="M133.71509,59.44267l6.22799,-17.29046l7.10835,18.49849z" fill="#ffc476" stroke="none" stroke-width="0" stroke-linecap="butt" stroke-linejoin="miter"/><path d="M223.16272,106.70066l-18.39293,36.17292c0,0 4.4828,-25.19862 3.23172,-38.00397c-2.55107,-26.11113 -9.8167,-27.54899 -9.8167,-27.54899l14.96062,-2.88145l5.19866,24.9554z" fill="#000000" stroke="none" stroke-width="0" stroke-linecap="butt" stroke-linejoin="miter"/><path d="M206.45343,140.62453c0,7.49382 -13.77976,24.79812 -41.14489,24.79812c-27.36514,0 -42.1954,-18.55199 -42.1954,-26.04582c0,-5.53285 14.15702,7.59665 35.69539,9.13324c7.63374,0.54461 12.64555,-9.91305 19.80646,-9.91305c4.90089,0 6.90559,10.21828 10.34383,10.13772c15.75982,-0.36922 17.49465,-14.26196 17.49465,-8.1102z" fill="#f0ad3c" stroke="none" stroke-width="0" stroke-linecap="butt" stroke-linejoin="miter"/><path d="M182.86732,133.95043c1.13934,-0.01583 0.69732,2.00824 -0.98725,4.52088c-1.68459,2.51264 -3.97384,4.56236 -5.11319,4.57819c-1.13934,0.01582 -0.69732,-2.00824 0.98725,-4.52088c1.68459,-2.51264 3.97384,-4.56238 5.11319,-4.5782z" fill="#000000" stroke="none" stroke-width="0" stroke-linecap="butt" stroke-linejoin="miter"/><path d="M158.84192,153.80767c0,0 -5.29998,4.65629 -9.72047,4.08033c-2.36303,-0.30789 -5.00611,-7.46211 -5.00611,-7.46211c0,0 -6.0682,4.01094 -9.08877,3.30902c-5.16353,-1.1999 -4.77733,-7.83838 -4.77733,-7.83838" fill="none" stroke="#000000" stroke-width="1.5" stroke-linecap="round" stroke-linejoin="miter"/><path d="M136.9482,195.31829c-9.38929,15.02264 -18.79799,26.30958 -21.01491,25.21011c-2.21691,-1.09947 3.59743,-14.16901 12.98673,-29.19165c9.38929,-15.02264 18.79799,-26.30958 21.01491,-25.21011c2.21691,1.09947 -3.59743,14.16901 -12.98673,29.19165z" fill="#f0ad3c" stroke="none" stroke-width="0" stroke-linecap="butt" stroke-linejoin="miter"/><g fill="#d4efff" stroke="none" stroke-width="0" stroke-linecap="butt" stroke-linejoin="miter"><path d="M100.92724,220.38613l6.5157,-3.0534l2.87594,-8.29659l19.20317,7.87095l-6.54113,6.77261l0.20654,6.27602z"/><path d="M122.4409,233.46039c0.72805,7.54139 -5.67308,14.19047 -14.29733,14.85113c-8.62425,0.66066 -16.20577,-4.91728 -16.93383,-12.45867c-0.72805,-7.54139 5.67308,-14.19047 14.29733,-14.85113c8.62425,-0.66066 16.20577,4.91728 16.93383,12.45867z"/></g><path d="M199.60687,254.40268l-50.80281,-50.38968l4.68395,-0.96286l56.56767,35.62582z" fill="#6676ff" stroke="none" stroke-width="0" stroke-linecap="butt" stroke-linejoin="miter"/><g stroke="none" stroke-width="0" stroke-linecap="butt" stroke-linejoin="miter"><g><path d="M212.57781,273.17267l-11.16941,-20.54101l45.82585,-12.28833l28.39671,6.83214z" fill="#ff1732"/><path d="M234.9887,263.73665c0,0 -7.16532,-4.27233 -8.36796,-6.75413c-1.57706,-3.2545 -0.27933,-11.09087 -0.27933,-11.09087l15.7813,-4.17239c0,0 -3.25241,6.66185 -1.75226,10.64043c1.50016,3.97858 8.0936,6.17753 8.0936,6.17753z" fill="#d4efff"/></g><path d="M201.4084,262.10556l-3.1278,-7.28189l-5.87979,-5.23529l20.17701,-15.08481l4.20759,5.6138l9.48395,3.69384z" fill="#d4efff"/></g><path d="M135.23974,141.75624l-5.35336,-10.02318l26.21555,-0.858l-26.70206,-3.48216l-0.45948,-11.96999l38.36873,12.66667l-1.718,7.33333z" fill="#000000" stroke="none" stroke-width="0" stroke-linecap="butt" stroke-linejoin="miter"/><path d="M186.45733,135.11429l-1.66174,-7.20717l20.18653,-14.67073l0.89194,11.93949l-14.56004,4.90145l14.705,-0.55515l-2.02455,10.26472z" fill="#000000" stroke="none" stroke-width="0" stroke-linecap="butt" stroke-linejoin="miter"/></g></g></svg>